# xmcd CD database file
#
# Track frame offsets:
#	187
#	61647
#	136482
#	188690
#
# Disc length: 3293 seconds
#
# Revision: 0
# Processed by: cddbd v1.4PL0 Copyright (c) Steve Scherf et al.
# Submitted via: CDex 1.51
#
DISCID=2d0cdb04
DTITLE=Fela Kuti - Excuse-O - Monkey Banana
DYEAR=1998
DGENRE=Jazz
TTITLE0=Excuse-O
TTITLE1=Mr Grammarticalogylisationalism Is The Boss
TTITLE2=Monkey Banana
TTITLE3=Sense Wiseness
EXTD=YEAR: 1998
EXTT0=
EXTT1=
EXTT2=
EXTT3=
PLAYORDER=
